<svg width="393" height="852" viewBox="0 0 393 852" fill="none" xmlns="http://www.w3.org/2000/svg">
<g clip-path="url(#clip0_128_280)">
<rect width="393" height="852" fill="white"/>
<g clip-path="url(#clip1_128_280)">
<rect width="852" height="393" transform="matrix(0 -1 1 0 0 852)" fill="url(#paint0_linear_128_280)"/>
<path d="M203.647 428.356C206.751 380.375 143.115 349.637 100.239 345.889V368.38C127.142 370.379 178.426 386.658 178.426 435.853C178.426 479.336 228.052 490.55 260 491.05V458.792C260 458.792 200.543 476.337 203.647 428.356Z" fill="#ED4C5C"/>
<path d="M180.297 435.64C183.401 387.659 119.766 356.921 76.8889 353.172V375.663C103.792 377.663 155.076 393.941 155.076 443.137C155.076 486.619 216.448 505.612 248.395 506.111V486.619C248.395 486.619 177.193 483.62 180.297 435.64Z" fill="#428BC1"/>
<path d="M70.9996 387.73C83.9755 396.454 102.049 392.781 110.854 379.924C119.659 367.067 137.27 363.394 150.709 372.118C163.221 380.383 166.929 396.454 159.978 408.852C175.271 383.138 168.319 349.619 142.367 332.629C115.952 315.181 80.2681 322.068 62.6579 348.241C62.1945 349.16 61.731 350.078 61.2676 350.537C54.7796 363.853 58.9505 379.465 70.9996 387.73Z" fill="#ED4C5C"/>
<path d="M151.024 372.27C138.073 363.546 120.033 367.219 111.244 380.076C102.455 392.933 84.8781 396.606 71.4638 387.882C58.9746 379.617 55.2742 363.546 62.2126 351.148C46.4855 376.862 53.8865 410.381 79.7899 427.371C106.156 444.819 141.773 437.931 159.35 411.759C159.813 410.84 160.276 409.922 160.738 409.463C167.214 396.147 163.051 380.535 151.024 372.27Z" fill="#428BC1"/>
<path d="M289 540C320.48 540 346 514.48 346 483C346 451.52 320.48 426 289 426C257.52 426 232 451.52 232 483C232 514.48 257.52 540 289 540Z" fill="#ED4C5C"/>
<path d="M270.53 483.56L287.472 497L281.118 474.92L298.06 461H277.095L270.53 439.401L264.177 461H243L259.942 474.92L253.588 497L270.53 483.56Z" fill="#FFE62E"/>
<path d="M298.697 500.12L293.827 501.32L298.485 503.48V509L301.662 504.92L306.321 506.84L303.568 502.28L306.533 497.96L301.662 499.16L298.697 494.6V500.12Z" fill="#FFE62E"/>
<path d="M305.894 483.8L302.294 487.4L307.165 486.92L309.282 492.2L310.129 486.68L315 486.2L310.765 483.32L311.823 477.8L308.223 481.4L303.988 478.52L305.894 483.8Z" fill="#FFE62E"/>
<path d="M307.165 465.08L308.647 470.6L310.129 465.32H315L311.188 461.96L312.671 456.44L308.647 459.8L304.835 456.2L306.317 461.72L302.294 464.84L307.165 465.08Z" fill="#FFE62E"/>
<path d="M298.697 445.88V451.4L301.662 446.84L306.533 448.04L303.568 443.72L306.321 439.16L301.662 441.32L298.485 437V442.52L293.827 444.68L298.697 445.88Z" fill="#FFE62E"/>
<path fill-rule="evenodd" clip-rule="evenodd" d="M212.876 418.444L265.91 404.187C309.042 392.588 318.062 421.898 318.062 421.898L221.859 447.649L176.939 519.166L154.251 524.463L168.544 461.92L87.1569 483.705L54 442.763C54 442.763 60.3108 440.314 69.7231 441.375C79.1354 442.436 90.9804 451.213 90.9804 451.213L161.503 432.255L117.883 386.592L141.089 380.222L212.876 418.444Z" fill="#254462" fill-opacity="0.7"/>
</g>
<path fill-rule="evenodd" clip-rule="evenodd" d="M153.423 222.391C154.014 223.212 155.502 226.063 154.828 228.193C154.379 229.614 153.153 230.346 151.152 230.391H-9.20502C-11.7248 230.296 -13.3917 229.501 -14.2056 228.007C-15.4264 225.766 -15.1961 223.918 -13.8167 221.027L-13.705 220.811C-13.2857 220.045 -13.1913 218.723 -13.0759 217.108C-12.6614 211.307 -11.9758 201.711 5 200.391C20.7466 199.166 33.9375 203.631 41.3872 206.152C44.4386 207.185 46.5267 207.892 47.4327 207.748C48.1986 207.626 49.3105 206.228 50.8353 204.31C55.5177 198.42 64.0935 187.633 78.5001 193.891C93.3514 200.342 105.22 210.692 110.897 215.642C112.52 217.058 113.637 218.032 114.172 218.346C114.172 219.719 115.736 217.865 118.241 214.893C123.118 209.108 131.564 199.09 139 200.391C143.363 201.154 146.554 208.24 149.379 214.512C150.785 217.633 152.099 220.553 153.423 222.391ZM247.954 314.906C247.262 315.771 245.182 318.548 246.348 320.874C247.124 322.425 248.686 323.127 251.033 322.981H419.719C422.728 322.851 424.693 321.819 425.614 319.883C426.996 316.98 424.553 309.716 420.088 304.13L419.867 303.853C415.309 298.145 405.693 286.102 387.271 283.354C372.348 281.128 361.471 284.596 355.548 286.484C354.039 286.966 352.851 287.344 352 287.5C350.926 287.697 349.336 287.689 347.324 287.68C341.48 287.652 332.084 287.608 321.5 292.5C311.834 296.968 302.525 296.264 296.666 295.822C293.9 295.613 291.903 295.462 291 295.94C283.753 295.94 280.997 297.77 277.961 299.785C275.342 301.524 272.514 303.402 266.413 304.362C258.767 305.565 252.614 309.08 247.954 314.906Z" fill="white"/>
<path fill-rule="evenodd" clip-rule="evenodd" d="M401.423 623.391C402.014 624.212 403.502 627.063 402.828 629.193C402.379 630.614 401.153 631.346 399.152 631.391H238.795C236.275 631.296 234.608 630.501 233.794 629.007C232.574 626.766 232.804 624.918 234.183 622.027L234.295 621.811C234.714 621.045 234.809 619.723 234.924 618.108C235.339 612.307 236.024 602.711 253 601.391C268.747 600.166 281.938 604.631 289.387 607.152C292.439 608.185 294.527 608.892 295.433 608.748C296.199 608.626 297.311 607.228 298.835 605.31C303.518 599.42 312.094 588.633 326.5 594.891C341.351 601.342 353.22 611.692 358.897 616.642C360.52 618.058 361.637 619.032 362.172 619.346C362.172 620.719 363.736 618.865 366.241 615.893C371.118 610.108 379.564 600.09 387 601.391C391.363 602.154 394.554 609.24 397.379 615.512C398.785 618.633 400.099 621.553 401.423 623.391ZM-13.0457 691.273C-13.7374 692.138 -15.8177 694.915 -14.6523 697.241C-13.8753 698.792 -12.3134 699.494 -9.9665 699.348H158.719C161.728 699.218 163.693 698.186 164.614 696.25C165.996 693.347 163.553 686.083 159.088 680.497C159.016 680.406 158.942 680.314 158.868 680.221C154.309 674.512 144.693 662.469 126.271 659.721C111.348 657.495 100.471 660.963 94.548 662.851C93.0389 663.333 91.8513 663.711 91.0002 663.867C89.9267 664.064 88.3358 664.056 86.324 664.047C80.4802 664.019 71.0847 663.975 60.5002 668.867C50.8341 673.335 41.5253 672.631 35.6661 672.189C32.9007 671.98 30.9037 671.829 30.0002 672.307C22.7531 672.307 19.9974 674.137 16.9617 676.152C14.3424 677.891 11.5147 679.769 5.41371 680.729C-2.2327 681.932 -8.38585 685.447 -13.0457 691.273Z" fill="white"/>
</g>
<defs>
<linearGradient id="paint0_linear_128_280" x1="852" y1="196" x2="-3.8387e-06" y2="196" gradientUnits="userSpaceOnUse">
<stop offset="0.483574" stop-color="#C72C41"/>
<stop offset="1" stop-color="#2D142C"/>
</linearGradient>
<clipPath id="clip0_128_280">
<rect width="393" height="852" fill="white"/>
</clipPath>
<clipPath id="clip1_128_280">
<rect width="852" height="393" fill="white" transform="matrix(0 -1 1 0 0 852)"/>
</clipPath>
</defs>
</svg>
